<?xml version="1.0" standalone="no"?>
<!DOCTYPE svg PUBLIC "-//W3C//DTD SVG 20010904//EN"
 "http://www.w3.org/TR/2001/REC-SVG-20010904/DTD/svg10.dtd">
<svg version="1.0" xmlns="http://www.w3.org/2000/svg"
 width="2000.000000pt" height="2000.000000pt" viewBox="0 0 2000.000000 2000.000000"
 preserveAspectRatio="xMidYMid meet">
<metadata>
Created by potrace 1.11, written by Peter Selinger 2001-2013
</metadata>
<g transform="translate(0.000000,2000.000000) scale(0.100000,-0.100000)"
fill="#000000" stroke="none">
<path d="M5734 19248 c-43 -28 -115 -74 -159 -103 -44 -29 -125 -81 -180 -117
-293 -189 -799 -517 -860 -556 -38 -25 -135 -88 -215 -140 -214 -139 -338
-220 -442 -287 -51 -32 -158 -102 -238 -154 -251 -163 -300 -194 -530 -343
-195 -126 -732 -474 -1130 -733 -69 -44 -167 -108 -218 -140 -147 -96 -316
-204 -332 -215 -24 -16 -230 -150 -285 -185 -27 -18 -104 -67 -170 -110 -66
-43 -147 -95 -180 -116 -33 -22 -131 -85 -217 -142 -87 -56 -200 -129 -250
-162 -233 -149 -318 -206 -318 -213 0 -5 117 -102 261 -217 143 -114 266 -213
273 -219 6 -6 32 -27 56 -46 25 -19 52 -40 60 -47 8 -7 103 -83 210 -169 107
-86 206 -166 220 -177 42 -36 122 -101 151 -122 15 -11 164 -130 331 -265 166
-134 371 -298 453 -365 83 -66 155 -124 161 -130 6 -5 28 -23 49 -40 49 -38
823 -661 850 -683 11 -9 63 -51 115 -92 52 -41 97 -77 100 -80 8 -8 125 -102
440 -355 157 -125 289 -232 294 -236 13 -12 -19 -39 -299 -254 -29 -22 -67
-52 -86 -67 -19 -15 -163 -128 -320 -250 -157 -123 -301 -235 -320 -250 -118
-93 -259 -203 -514 -402 -159 -125 -303 -237 -320 -250 -81 -64 -205 -160
-249 -194 -26 -20 -53 -42 -60 -47 -6 -6 -72 -57 -146 -115 -74 -57 -137 -107
-140 -110 -3 -3 -21 -17 -40 -30 -19 -13 -37 -27 -40 -30 -3 -4 -133 -106
-290 -228 -157 -122 -292 -228 -300 -235 -9 -6 -45 -34 -80 -62 -36 -27 -67
-52 -70 -55 -3 -3 -54 -44 -115 -90 -60 -46 -112 -87 -115 -90 -3 -3 -32 -25
-65 -50 -33 -25 -62 -47 -65 -50 -3 -4 -94 -75 -203 -160 l-197 -154 112 -73
c62 -41 226 -148 363 -238 138 -90 329 -216 425 -279 96 -63 254 -166 350
-229 416 -273 632 -415 740 -485 63 -41 187 -123 275 -180 88 -58 248 -163
355 -233 107 -70 200 -132 207 -138 7 -6 14 -11 17 -11 3 0 52 -31 108 -69
103 -68 371 -244 673 -442 323 -211 440 -288 452 -299 7 -5 15 -10 18 -10 3 0
58 -35 123 -78 64 -43 206 -137 315 -208 394 -258 663 -434 707 -464 25 -17
122 -80 215 -141 94 -61 210 -137 259 -170 49 -32 94 -59 100 -59 6 0 22 10
36 23 14 12 81 69 150 126 69 58 141 118 160 135 20 17 57 49 84 71 68 56 309
257 322 270 6 5 33 28 59 50 27 22 83 69 124 104 42 34 85 70 96 80 27 22 194
161 225 188 14 11 75 62 135 113 61 51 121 102 135 114 14 11 63 52 110 91 47
38 87 72 90 75 3 3 46 39 95 80 50 41 92 77 95 80 3 3 32 28 65 55 33 28 62
52 65 55 4 4 375 314 579 485 13 11 56 47 95 80 60 51 181 152 275 230 13 11
29 25 35 30 6 6 65 55 131 110 66 55 181 151 255 214 74 62 157 132 185 155
27 22 68 57 91 76 22 19 63 53 89 75 27 22 53 45 59 50 68 61 198 165 207 165
6 0 50 -33 98 -72 47 -40 95 -80 106 -90 28 -23 285 -236 310 -256 61 -51 276
-229 310 -257 40 -33 102 -84 140 -117 11 -9 117 -97 235 -195 538 -446 757
-627 780 -647 14 -11 115 -95 225 -186 110 -90 202 -167 205 -170 3 -3 84 -71
180 -150 209 -172 637 -527 698 -579 52 -43 77 -63 202 -167 52 -43 97 -81
100 -84 3 -3 41 -35 85 -70 44 -35 96 -78 116 -94 19 -17 57 -49 84 -71 27
-22 87 -72 134 -111 l85 -71 40 27 c23 15 113 74 201 131 88 57 223 145 300
196 284 186 435 284 635 415 113 74 257 167 320 208 63 41 157 103 210 137 52
34 100 67 107 72 7 6 14 11 17 11 3 0 31 18 63 39 53 36 160 106 596 390 81
53 223 146 315 206 93 61 242 158 333 217 176 115 350 229 629 411 161 106
308 202 610 399 63 41 153 99 200 130 47 30 157 102 245 160 165 108 367 240
515 336 47 31 163 107 259 169 l174 114 -30 22 c-16 12 -36 28 -44 34 -8 7
-44 36 -80 65 -36 29 -85 69 -109 88 -112 90 -175 140 -257 205 -48 38 -93 75
-99 81 -7 6 -49 39 -94 75 -45 35 -91 71 -101 81 -26 21 -75 61 -179 144 -47
37 -276 221 -510 408 -234 188 -432 346 -440 353 -8 6 -67 53 -130 104 -63 51
-455 365 -870 698 -837 671 -908 728 -964 774 -21 18 -49 39 -62 47 -33 20
-30 33 14 66 20 15 39 31 42 34 3 3 41 35 85 70 44 36 89 72 100 82 18 15 293
238 519 421 48 40 93 77 100 82 6 6 45 37 86 70 41 33 84 68 95 77 59 49 732
597 1115 907 146 118 267 217 270 220 3 4 50 42 105 86 55 44 102 82 105 85 3
3 28 23 55 45 28 22 59 48 70 57 33 28 422 344 525 426 52 42 97 79 100 82 5
5 47 39 216 176 33 27 129 105 213 173 l152 124 -218 143 c-411 268 -588 384
-733 478 -80 52 -150 99 -157 105 -7 6 -14 11 -17 11 -2 0 -44 26 -93 58 -241
160 -299 197 -308 202 -9 4 -141 91 -395 259 -46 31 -89 58 -95 61 -5 3 -89
57 -185 120 -270 179 -738 484 -757 495 -10 6 -34 22 -54 38 -20 15 -39 27
-43 27 -3 0 -45 26 -93 59 -48 32 -162 107 -253 166 -91 59 -226 147 -300 196
-74 48 -317 207 -540 353 -223 145 -490 320 -595 387 -104 68 -191 127 -193
131 -2 4 -7 8 -12 8 -5 0 -41 22 -82 49 -75 50 -614 401 -634 414 -7 4 -56
-30 -116 -81 -58 -48 -127 -105 -154 -127 -26 -22 -67 -56 -90 -75 -23 -19
-61 -51 -85 -71 -24 -20 -155 -128 -290 -240 -135 -112 -264 -220 -288 -239
-24 -19 -154 -127 -290 -240 -135 -113 -354 -294 -486 -404 -132 -109 -251
-208 -265 -220 -14 -11 -50 -41 -80 -66 -30 -25 -66 -55 -80 -66 -14 -12 -108
-91 -210 -175 -102 -84 -234 -194 -295 -244 -60 -50 -220 -183 -355 -294 -135
-112 -265 -220 -290 -241 -25 -21 -153 -127 -285 -236 -132 -109 -245 -203
-251 -209 -6 -5 -52 -43 -102 -84 -81 -65 -89 -76 -74 -86 9 -6 166 -103 347
-215 182 -111 346 -213 365 -225 19 -13 100 -63 180 -112 80 -50 307 -190 505
-313 198 -123 372 -230 387 -239 15 -9 105 -65 200 -124 95 -60 180 -113 188
-117 44 -27 270 -166 300 -185 19 -12 143 -89 275 -171 132 -81 318 -196 414
-256 96 -59 178 -108 183 -108 4 0 8 -3 8 -7 0 -5 10 -13 23 -19 18 -8 522
-320 1392 -859 55 -34 197 -122 315 -195 118 -73 227 -141 242 -151 15 -10 30
-19 33 -19 4 0 21 -10 38 -23 35 -25 55 -37 107 -67 19 -11 47 -28 62 -38 15
-9 67 -41 115 -71 48 -30 105 -65 126 -78 l39 -24 -54 -33 c-29 -18 -118 -72
-198 -120 -80 -49 -161 -98 -180 -111 -19 -13 -128 -80 -242 -149 -382 -232
-622 -378 -793 -484 -93 -57 -190 -116 -215 -130 -25 -14 -56 -33 -70 -43 -20
-14 -674 -414 -782 -478 -15 -9 -64 -39 -110 -67 -46 -28 -164 -100 -263 -161
-99 -60 -292 -178 -430 -263 -137 -84 -262 -160 -277 -169 -57 -34 -226 -137
-288 -175 -36 -23 -74 -46 -85 -53 -11 -6 -144 -87 -295 -180 -366 -224 -526
-322 -765 -468 -110 -67 -338 -206 -508 -309 l-307 -188 -248 153 c-136 83
-322 198 -413 255 -92 57 -180 111 -197 121 -16 10 -56 34 -87 53 -31 19 -71
43 -88 54 -18 10 -42 27 -56 37 -13 10 -30 19 -37 19 -8 0 -14 5 -14 10 0 6
-4 10 -10 10 -5 0 -60 32 -122 71 -62 40 -129 81 -149 93 -20 12 -233 143
-473 291 -240 149 -449 277 -464 286 -15 9 -209 128 -432 266 -223 137 -416
256 -430 264 -14 8 -27 17 -30 20 -3 3 -12 8 -20 12 -8 4 -46 27 -85 51 -38
25 -99 63 -135 84 -65 39 -492 302 -605 372 -113 71 -490 303 -517 319 -15 9
-78 48 -140 86 -62 39 -121 75 -131 80 -15 9 -359 221 -780 482 l-149 91 39
25 c21 14 268 168 548 342 281 174 526 327 545 340 19 13 283 177 585 365 303
188 573 357 600 374 28 18 320 201 650 406 861 537 1538 959 1555 970 8 5 85
53 170 106 85 53 178 111 205 129 28 17 113 71 190 119 77 48 147 91 155 96
77 49 284 176 407 252 84 51 152 98 153 103 0 6 -129 119 -286 250 -158 132
-364 305 -458 384 -94 79 -225 188 -291 243 -173 145 -217 182 -229 193 -6 6
-36 30 -66 55 -58 48 -61 50 -186 156 -45 38 -186 157 -314 264 -255 213 -999
838 -1041 873 -14 12 -48 40 -74 62 -27 22 -99 82 -159 133 -61 52 -120 101
-131 110 -58 48 -141 118 -151 127 -6 6 -30 26 -54 45 -24 19 -48 40 -54 45
-6 6 -36 30 -66 55 -30 25 -59 50 -65 56 -5 6 -35 30 -65 55 -30 24 -57 46
-60 49 -6 6 -177 149 -203 170 -11 8 -27 22 -36 30 -44 42 -43 42 -127 -12z"/>
<path d="M9679 7764 c-252 -209 -255 -211 -434 -359 -71 -59 -141 -117 -155
-129 -14 -11 -104 -86 -200 -166 -164 -135 -600 -497 -700 -580 -25 -21 -130
-109 -235 -195 -104 -86 -212 -176 -239 -199 -27 -22 -58 -47 -70 -55 -12 -8
-23 -18 -26 -22 -3 -4 -90 -77 -195 -164 -104 -86 -210 -174 -235 -195 -64
-54 -340 -282 -845 -700 -242 -200 -442 -367 -445 -370 -3 -3 -23 -20 -46 -37
l-41 -32 -224 151 c-123 83 -325 219 -449 303 -607 410 -1022 690 -1036 698
-8 5 -11 -169 -11 -643 l-1 -650 49 -30 c27 -16 52 -30 56 -30 3 0 21 -11 39
-25 18 -14 35 -25 38 -25 5 0 56 -30 186 -110 49 -30 177 -106 190 -113 8 -4
27 -15 42 -25 48 -30 942 -567 958 -575 8 -4 27 -15 42 -25 29 -18 646 -390
676 -407 22 -12 172 -102 192 -115 30 -19 656 -393 680 -407 14 -8 38 -22 53
-31 50 -31 929 -558 1778 -1068 l837 -502 178 109 c99 60 186 112 195 117 8 4
96 56 195 115 98 60 186 113 194 118 8 5 121 72 250 149 129 77 242 145 250
150 8 5 32 20 54 32 21 13 46 28 55 33 67 41 985 592 999 600 14 8 330 197
392 235 50 31 158 95 175 104 11 6 63 37 115 69 52 32 104 63 115 70 11 7 42
26 70 43 28 17 70 42 95 56 25 14 167 98 315 188 149 90 285 171 302 181 18
10 61 36 95 58 35 21 81 50 104 63 23 12 168 100 323 193 155 94 290 175 299
180 15 8 340 204 392 235 50 31 158 95 175 104 11 6 64 38 118 71 54 33 106
65 115 70 101 58 233 139 237 146 6 8 8 1290 3 1295 -2 1 -32 -17 -68 -41 -36
-23 -166 -109 -290 -190 -124 -82 -310 -204 -415 -273 -461 -304 -967 -637
-981 -645 -6 -3 -115 80 -242 187 -127 107 -252 211 -278 232 -25 22 -51 44
-57 49 -7 6 -52 44 -102 85 -49 41 -92 77 -95 80 -3 3 -59 50 -125 105 -66 54
-122 101 -125 105 -3 3 -72 62 -155 130 -82 69 -152 127 -155 130 -3 3 -88 75
-190 160 -102 85 -194 162 -205 171 -53 45 -185 155 -224 188 -24 20 -78 65
-120 101 -43 36 -169 142 -280 235 -112 94 -209 175 -215 180 -6 6 -65 55
-131 110 -66 55 -131 109 -145 121 -14 12 -212 179 -440 370 -228 191 -469
393 -535 448 -66 56 -128 108 -138 116 -11 8 -35 30 -56 47 -20 18 -39 33 -42
33 -4 0 -107 -84 -230 -186z"/>
</g>
</svg>
